<?xml version="1.0" encoding="UTF-8" standalone="no"?>
<svg
   xmlns:dc="http://purl.org/dc/elements/1.1/"
   xmlns:cc="http://creativecommons.org/ns#"
   xmlns:rdf="http://www.w3.org/1999/02/22-rdf-syntax-ns#"
   xmlns:svg="http://www.w3.org/2000/svg"
   xmlns="http://www.w3.org/2000/svg"
   xmlns:xlink="http://www.w3.org/1999/xlink"
   xmlns:sodipodi="http://sodipodi.sourceforge.net/DTD/sodipodi-0.dtd"
   xmlns:inkscape="http://www.inkscape.org/namespaces/inkscape"
   id="Layer_2"
   data-name="Layer 2"
   viewBox="0 0 335.10516 37.930741"
   version="1.1"
   sodipodi:docname="logo.svg"
   inkscape:version="0.92.5 (2060ec1f9f, 2020-04-08)"
   width="335.10516"
   height="37.93074">
  <metadata
     id="metadata3979">
    <rdf:RDF>
      <cc:Work
         rdf:about="">
        <dc:format>image/svg+xml</dc:format>
        <dc:type
           rdf:resource="http://purl.org/dc/dcmitype/StillImage" />
        <dc:title>logo</dc:title>
      </cc:Work>
    </rdf:RDF>
  </metadata>
  <sodipodi:namedview
     pagecolor="#ffffff"
     bordercolor="#666666"
     borderopacity="1"
     objecttolerance="10"
     gridtolerance="10"
     guidetolerance="10"
     inkscape:pageopacity="0"
     inkscape:pageshadow="2"
     inkscape:window-width="1920"
     inkscape:window-height="1138"
     id="namedview3977"
     showgrid="false"
     inkscape:zoom="4.9641364"
     inkscape:cx="289.91399"
     inkscape:cy="62.308576"
     inkscape:window-x="-8"
     inkscape:window-y="-8"
     inkscape:window-maximized="1"
     inkscape:current-layer="Layer_2"
     fit-margin-top="0"
     fit-margin-left="0"
     fit-margin-right="0"
     fit-margin-bottom="0" />
  <defs
     id="defs3890">
    <style
       id="style3847">.cls-1{fill:#00c9db;}.cls-2{fill:url(#New_Gradient_Swatch_61);}.cls-3{fill:url(#New_Gradient_Swatch_8);}.cls-4{fill:url(#New_Gradient_Swatch_8-2);}.cls-5{fill:url(#New_Gradient_Swatch_16);}.cls-6{fill:url(#New_Gradient_Swatch_16-2);}.cls-7{fill:url(#New_Gradient_Swatch_16-3);}.cls-8{fill:url(#New_Gradient_Swatch_8-3);}.cls-9{fill:url(#New_Gradient_Swatch_16-4);}.cls-10{fill:url(#New_Gradient_Swatch_8-4);}.cls-11{fill:url(#New_Gradient_Swatch_16-5);}.cls-12{fill:url(#New_Gradient_Swatch_8-5);}.cls-13{fill:url(#New_Gradient_Swatch_8-6);}.cls-14{fill:url(#New_Gradient_Swatch_16-6);}.cls-15{fill:url(#New_Gradient_Swatch_8-7);}.cls-16{fill:url(#New_Gradient_Swatch_16-7);}.cls-17{fill:url(#New_Gradient_Swatch_61-2);}.cls-18{fill:url(#New_Gradient_Swatch_61-3);}.cls-19{fill:url(#New_Gradient_Swatch_61-4);}.cls-20{fill:url(#New_Gradient_Swatch_61-5);}.cls-21{fill:url(#New_Gradient_Swatch_8-8);}.cls-22{fill:url(#New_Gradient_Swatch_61-6);}.cls-23{fill:url(#New_Gradient_Swatch_8-9);}.cls-24{fill:url(#New_Gradient_Swatch_61-7);}.cls-25{fill:url(#New_Gradient_Swatch_16-8);}.cls-26{fill:url(#New_Gradient_Swatch_61-8);}.cls-27{fill:url(#New_Gradient_Swatch_16-9);}.cls-28{fill:url(#New_Gradient_Swatch_61-9);}.cls-29{fill:url(#New_Gradient_Swatch_8-10);}.cls-30{fill:url(#New_Gradient_Swatch_16-10);}.cls-31{fill:#f1f1f8;}</style>
    <linearGradient
       id="New_Gradient_Swatch_61"
       x1="3676.9319"
       y1="-3909.1951"
       x2="3670.354"
       y2="-3908.0979"
       gradientTransform="rotate(-87.025,3922.0646,-26.618255)"
       gradientUnits="userSpaceOnUse">
      <stop
         offset="0"
         stop-color="#f0584b"
         id="stop3849" />
      <stop
         offset="1"
         stop-color="#c73f3d"
         id="stop3851" />
    </linearGradient>
    <linearGradient
       id="New_Gradient_Swatch_8"
       x1="3660.7271"
       y1="-3907.3501"
       x2="3681.3811"
       y2="-3907.3501"
       gradientTransform="rotate(-87.025,3922.0646,-26.618255)"
       gradientUnits="userSpaceOnUse">
      <stop
         offset="0"
         stop-color="#fcba39"
         id="stop3854" />
      <stop
         offset="1"
         stop-color="#d96d2d"
         id="stop3856" />
    </linearGradient>
    <linearGradient
       id="New_Gradient_Swatch_8-2"
       x1="3660.6941"
       y1="-3906.8911"
       x2="3681.3811"
       y2="-3906.8911"
       xlink:href="#New_Gradient_Swatch_8"
       gradientTransform="translate(0.00480083,-0.07099328)" />
    <radialGradient
       id="New_Gradient_Swatch_16"
       cx="3671.3491"
       cy="-3923.3459"
       r="14.151"
       gradientTransform="matrix(0.053,-1.035,1.027,0.054,3851.362,4031.935)"
       gradientUnits="userSpaceOnUse">
      <stop
         offset="0"
         stop-color="#f9b314"
         id="stop3860" />
      <stop
         offset="1"
         stop-color="#ec5222"
         id="stop3862" />
    </radialGradient>
    <radialGradient
       id="New_Gradient_Swatch_16-2"
       cx="3671.3521"
       cy="-3923.353"
       r="14.157"
       xlink:href="#New_Gradient_Swatch_16"
       gradientTransform="translate(0.00480083,-0.07099328)" />
    <radialGradient
       id="New_Gradient_Swatch_16-3"
       cx="3671.353"
       cy="-3923.3501"
       r="14.154"
       xlink:href="#New_Gradient_Swatch_16"
       gradientTransform="translate(0.00480083,-0.07099328)" />
    <linearGradient
       id="New_Gradient_Swatch_8-3"
       x1="3660.5559"
       y1="-3906.967"
       x2="3681.4609"
       y2="-3906.967"
       xlink:href="#New_Gradient_Swatch_8"
       gradientTransform="translate(0.00480083,-0.07099328)" />
    <radialGradient
       id="New_Gradient_Swatch_16-4"
       cx="3671.354"
       cy="-3923.333"
       r="14.138"
       xlink:href="#New_Gradient_Swatch_16"
       gradientTransform="translate(0.00480083,-0.07099328)" />
    <linearGradient
       id="New_Gradient_Swatch_8-4"
       x1="3660.5459"
       y1="-3908.7"
       x2="3681.4661"
       y2="-3908.7"
       xlink:href="#New_Gradient_Swatch_8"
       gradientTransform="translate(0.00480083,-0.07099328)" />
    <radialGradient
       id="New_Gradient_Swatch_16-5"
       cx="3671.353"
       cy="-3923.3799"
       r="14.181"
       xlink:href="#New_Gradient_Swatch_16"
       gradientTransform="translate(0.00480083,-0.07099328)" />
    <linearGradient
       id="New_Gradient_Swatch_8-5"
       x1="3660.5491"
       y1="-3914.647"
       x2="3681.4651"
       y2="-3914.647"
       xlink:href="#New_Gradient_Swatch_8"
       gradientTransform="translate(0.00480083,-0.07099328)" />
    <linearGradient
       id="New_Gradient_Swatch_8-6"
       x1="3660.5879"
       y1="-3908.8621"
       x2="3681.3391"
       y2="-3908.8621"
       xlink:href="#New_Gradient_Swatch_8"
       gradientTransform="translate(0.00480083,-0.07099328)" />
    <radialGradient
       id="New_Gradient_Swatch_16-6"
       cx="3671.3049"
       cy="-3923.2361"
       r="14.037"
       xlink:href="#New_Gradient_Swatch_16"
       gradientTransform="translate(0.00480083,-0.07099328)" />
    <linearGradient
       id="New_Gradient_Swatch_8-7"
       x1="3660.554"
       y1="-3907.594"
       x2="3681.4629"
       y2="-3907.594"
       xlink:href="#New_Gradient_Swatch_8"
       gradientTransform="translate(0.00480083,-0.07099328)" />
    <radialGradient
       id="New_Gradient_Swatch_16-7"
       cx="3671.354"
       cy="-3923.363"
       r="14.166"
       xlink:href="#New_Gradient_Swatch_16"
       gradientTransform="translate(0.00480083,-0.07099328)" />
    <linearGradient
       id="New_Gradient_Swatch_61-2"
       x1="3677.207"
       y1="-3907.439"
       x2="3670.665"
       y2="-3906.3491"
       xlink:href="#New_Gradient_Swatch_61"
       gradientTransform="translate(0.00480083,-0.07099328)" />
    <linearGradient
       id="New_Gradient_Swatch_61-3"
       x1="3677.176"
       y1="-3907.7229"
       x2="3670.603"
       y2="-3906.6279"
       xlink:href="#New_Gradient_Swatch_61"
       gradientTransform="translate(0.00480083,-0.07099328)" />
    <linearGradient
       id="New_Gradient_Swatch_61-4"
       x1="3676.6479"
       y1="-3910.8469"
       x2="3670.075"
       y2="-3909.751"
       xlink:href="#New_Gradient_Swatch_61"
       gradientTransform="translate(0.00480083,-0.07099328)" />
    <linearGradient
       id="New_Gradient_Swatch_61-5"
       x1="3676.832"
       y1="-3910.6111"
       x2="3670.1731"
       y2="-3909.501"
       xlink:href="#New_Gradient_Swatch_61"
       gradientTransform="translate(0.00480083,-0.07099328)" />
    <linearGradient
       id="New_Gradient_Swatch_8-8"
       x1="3660.5381"
       y1="-3907.321"
       x2="3681.4709"
       y2="-3907.321"
       xlink:href="#New_Gradient_Swatch_8"
       gradientTransform="translate(0.00480083,-0.07099328)" />
    <linearGradient
       id="New_Gradient_Swatch_61-6"
       x1="3677.1699"
       y1="-3907.74"
       x2="3670.604"
       y2="-3906.646"
       xlink:href="#New_Gradient_Swatch_61"
       gradientTransform="translate(0.00480083,-0.07099328)" />
    <linearGradient
       id="New_Gradient_Swatch_8-9"
       x1="3659.8789"
       y1="-3906.8831"
       x2="3681.853"
       y2="-3906.8831"
       xlink:href="#New_Gradient_Swatch_8"
       gradientTransform="translate(0.00480083,-0.07099328)" />
    <linearGradient
       id="New_Gradient_Swatch_61-7"
       x1="3677.3989"
       y1="-3907.4851"
       x2="3670.4839"
       y2="-3906.333"
       xlink:href="#New_Gradient_Swatch_61"
       gradientTransform="translate(0.00480083,-0.07099328)" />
    <radialGradient
       id="New_Gradient_Swatch_16-8"
       cx="3671.3521"
       cy="-3923.3589"
       r="14.163"
       xlink:href="#New_Gradient_Swatch_16"
       gradientTransform="translate(0.00480083,-0.07099328)" />
    <linearGradient
       id="New_Gradient_Swatch_61-8"
       x1="3677.189"
       y1="-3907.6421"
       x2="3670.6169"
       y2="-3906.5471"
       xlink:href="#New_Gradient_Swatch_61"
       gradientTransform="translate(0.00480083,-0.07099328)" />
    <radialGradient
       id="New_Gradient_Swatch_16-9"
       cx="3671.3601"
       cy="-3923.593"
       r="14.37"
       xlink:href="#New_Gradient_Swatch_16"
       gradientTransform="translate(0.00480083,-0.07099328)" />
    <linearGradient
       id="New_Gradient_Swatch_61-9"
       x1="3677.2009"
       y1="-3907.437"
       x2="3670.6689"
       y2="-3906.3491"
       xlink:href="#New_Gradient_Swatch_61"
       gradientTransform="translate(0.00480083,-0.07099328)" />
    <linearGradient
       id="New_Gradient_Swatch_8-10"
       x1="3660.5459"
       y1="-3907.8601"
       x2="3681.4661"
       y2="-3907.8601"
       xlink:href="#New_Gradient_Swatch_8"
       gradientTransform="translate(0.00480083,-0.07099328)" />
    <radialGradient
       id="New_Gradient_Swatch_16-10"
       cx="3671.3511"
       cy="-3923.3579"
       r="14.161"
       xlink:href="#New_Gradient_Swatch_16"
       gradientTransform="translate(0.00480083,-0.07099328)" />
    <linearGradient
       inkscape:collect="always"
       xlink:href="#New_Gradient_Swatch_61"
       id="linearGradient4790"
       gradientUnits="userSpaceOnUse"
       gradientTransform="rotate(-87.025,3922.0296,-26.65628)"
       x1="3676.9319"
       y1="-3909.1951"
       x2="3670.354"
       y2="-3908.0979" />
    <linearGradient
       inkscape:collect="always"
       xlink:href="#New_Gradient_Swatch_8"
       id="linearGradient4792"
       gradientUnits="userSpaceOnUse"
       gradientTransform="rotate(-87.025,3922.0296,-26.65628)"
       x1="3660.7271"
       y1="-3907.3501"
       x2="3681.3811"
       y2="-3907.3501" />
    <radialGradient
       inkscape:collect="always"
       xlink:href="#New_Gradient_Swatch_16"
       id="radialGradient4794"
       gradientUnits="userSpaceOnUse"
       gradientTransform="matrix(0.053,-1.035,1.027,0.054,3851.3668,4031.864)"
       cx="3671.3491"
       cy="-3923.3459"
       r="14.151" />
  </defs>
  <title
     id="title3892">logo</title>
  <path
     class="cls-1"
     d="m 30.363801,12.823007 c -0.114,-0.194 -0.232,-0.394 -0.359,-0.594 -4.714,-7.3180003 -11.3,-12.90900028 -14.64,-12.16200028 a 5.518,5.518 0 0 0 -2.909,2.19199998 9.888,9.888 0 0 1 5.671,2.27 15.95,15.95 0 0 1 3.55,2.593 c 1.575,1.263 6.809,7.2370003 9.71,14.3520003 1.115,2.868 1.434,5.194 0.832,6.13 l -0.02,0.03 c -0.651,1.012 -3.216,1.7 -6.655,1.756 a 17.031,17.031 0 0 1 -1.2,3.26 c 5.486,0.2 10.016,-0.769 11.294,-2.792 1.787,-2.729 -0.665,-10.248 -5.274,-17.035 z"
     id="path3894"
     inkscape:connector-curvature="0"
     style="fill:#00c9db" />
  <path
     class="cls-2"
     d="m 34.389801,20.143007 q -0.409,-0.965 -0.9,-1.958 a 44.752,44.752 0 0 1 -1.676,4.492 c 0.755,2.3 0.917,4.124 0.4,4.925 l -0.02,0.03 a 1.888,1.888 0 0 1 -0.535,0.513 c 1.295,-0.679 3.769,-1.881 2.731,-8.002 z"
     id="path3896"
     inkscape:connector-curvature="0"
     style="fill:url(#linearGradient4790)" />
  <path
     class="cls-1"
     d="m 30.759801,8.8690067 0.025,0.028 c 0.83,0.927 0.791,3.7610003 -0.132,7.3000003 -3.558,9.417 -5.384,10.522 -9.5,14.622 -2.807,2.263 -5.336,3.437 -6.508,3.053 l -0.04,-0.014 c -0.786,-0.257 -1.658,-1.444 -2.435,-3.251 a 39.614,39.614 0 0 1 -3.9650002,-1.344 c 1.255,4.521 3.1410002,7.874 5.1570002,8.514 3.021,1.018 9.4,-3.13 14.653,-9.179 6.657,-7.916 8.317,-19.7150003 5.79,-22.4690003 -1.629,-1.776 -6.29,-2.041 -11.74,-0.937 a 43.824,43.824 0 0 1 3.872,2.8 c 2.403,-0.145 4.189,0.169 4.823,0.877 z"
     id="path3898"
     inkscape:connector-curvature="0"
     style="fill:#00c9db" />
  <path
     class="cls-3"
     d="m 33.947801,19.142007 -0.028,-0.06 c 0,0.009 0.008,0.02 0.013,0.03 z"
     id="path3900"
     inkscape:connector-curvature="0"
     style="fill:url(#linearGradient4792)" />
  <path
     class="cls-4"
     d="m 34.351801,20.059007 -0.014,-0.03 0.012,0.027 z"
     id="path3902"
     inkscape:connector-curvature="0"
     style="fill:url(#New_Gradient_Swatch_8-2)" />
  <path
     class="cls-5"
     d="m 34.337801,20.029007 c -0.1,-0.239 -0.208,-0.479 -0.317,-0.721 0.063,0.14 0.123,0.278 0.184,0.417 0.043,0.098 0.09,0.204 0.133,0.304 z"
     id="path3904"
     inkscape:connector-curvature="0"
     style="fill:url(#radialGradient4794)" />
  <path
     class="cls-6"
     d="m 34.390801,20.154007 c 1.49,3.541 2.114,6.7 1.637,8.688 0.01,-0.008 0.022,-0.015 0.03,-0.023 0.486,-1.972 -0.177,-5.142 -1.669,-8.67 v 0.005 z"
     id="path3906"
     inkscape:connector-curvature="0"
     style="fill:url(#New_Gradient_Swatch_16-2)" />
  <path
     class="cls-7"
     d="m 33.493801,18.185007 c 0.148,0.3 0.289,0.6 0.427,0.9 -0.138,-0.3 -0.279,-0.599 -0.427,-0.9 z"
     id="path3908"
     inkscape:connector-curvature="0"
     style="fill:url(#New_Gradient_Swatch_16-3)" />
  <path
     class="cls-8"
     d="m 34.349801,20.053007 -0.012,-0.024 c -0.043,-0.1 -0.09,-0.2 -0.133,-0.3 0.048,0.1 0.1,0.215 0.145,0.324 z"
     id="path3910"
     inkscape:connector-curvature="0"
     style="fill:url(#New_Gradient_Swatch_8-3)" />
  <path
     class="cls-9"
     d="m 34.349801,20.053007 -0.012,-0.024 c -0.043,-0.1 -0.09,-0.2 -0.133,-0.3 0.048,0.1 0.1,0.215 0.145,0.324 z"
     id="path3912"
     inkscape:connector-curvature="0"
     style="fill:url(#New_Gradient_Swatch_16-4)" />
  <path
     class="cls-10"
     d="m 32.070801,27.796007 a 1.279,1.279 0 0 0 0.128,-0.164 1.37,1.37 0 0 1 -0.128,0.164 z"
     id="path3914"
     inkscape:connector-curvature="0"
     style="fill:url(#New_Gradient_Swatch_8-4)" />
  <path
     class="cls-11"
     d="m 32.070801,27.796007 a 1.279,1.279 0 0 0 0.128,-0.164 1.37,1.37 0 0 1 -0.128,0.164 z"
     id="path3916"
     inkscape:connector-curvature="0"
     style="fill:url(#New_Gradient_Swatch_16-5)" />
  <path
     class="cls-12"
     d="m 34.390801,20.154007 c 1.033,6.111 -1.438,7.313 -2.727,7.991 l 0.013,-0.011 c -1.111,0.762 -3.5,1.245 -6.507,1.259 a 44.4,44.4 0 0 1 -8.99,-1.623 9.052,9.052 0 0 0 0.177,1.357 c 0.037,0.175 0.08,0.348 0.126,0.519 8.243,2.233 17.182,1.176 19.545,-0.8 0.477,-1.989 -0.147,-5.151 -1.637,-8.692 z"
     id="path3918"
     inkscape:connector-curvature="0"
     style="fill:url(#New_Gradient_Swatch_8-5)" />
  <path
     class="cls-13"
     d="m 31.918801,27.946007 c 0.031,-0.028 0.061,-0.056 0.089,-0.083 -0.028,0.027 -0.058,0.055 -0.089,0.083 z"
     id="path3920"
     inkscape:connector-curvature="0"
     style="fill:url(#New_Gradient_Swatch_8-6)" />
  <path
     class="cls-14"
     d="m 31.918801,27.946007 c 0.031,-0.028 0.061,-0.056 0.089,-0.083 -0.028,0.027 -0.058,0.055 -0.089,0.083 z"
     id="path3922"
     inkscape:connector-curvature="0"
     style="fill:url(#New_Gradient_Swatch_16-6)" />
  <path
     class="cls-15"
     d="m 33.919801,19.083007 c -0.138,-0.3 -0.279,-0.6 -0.427,-0.9 q 0.229,0.466 0.44,0.927 c -0.005,-0.008 -0.008,-0.018 -0.013,-0.027 z"
     id="path3924"
     inkscape:connector-curvature="0"
     style="fill:url(#New_Gradient_Swatch_8-7)" />
  <path
     class="cls-16"
     d="m 33.919801,19.083007 c -0.138,-0.3 -0.279,-0.6 -0.427,-0.9 q 0.229,0.466 0.44,0.927 c -0.005,-0.008 -0.008,-0.018 -0.013,-0.027 z"
     id="path3926"
     inkscape:connector-curvature="0"
     style="fill:url(#New_Gradient_Swatch_16-7)" />
  <path
     class="cls-17"
     d="m 34.389801,20.148007 v 0 c -0.012,-0.029 -0.026,-0.056 -0.037,-0.085 v 0.007 z"
     id="path3928"
     inkscape:connector-curvature="0"
     style="fill:url(#New_Gradient_Swatch_61-2)" />
  <path
     class="cls-18"
     d="m 34.020801,19.305007 -0.073,-0.163 c 0.014,0.029 0.025,0.057 0.038,0.086 z"
     id="path3930"
     inkscape:connector-curvature="0"
     style="fill:url(#New_Gradient_Swatch_61-3)" />
  <path
     class="cls-19"
     d="m 31.677801,28.129007 a 2.342,2.342 0 0 0 0.241,-0.188 2.469,2.469 0 0 1 -0.241,0.188 z"
     id="path3932"
     inkscape:connector-curvature="0"
     style="fill:url(#New_Gradient_Swatch_61-4)" />
  <path
     class="cls-20"
     d="m 32.004801,27.863007 c 0.023,-0.023 0.044,-0.045 0.063,-0.067 -0.017,0.022 -0.038,0.045 -0.063,0.067 z"
     id="path3934"
     inkscape:connector-curvature="0"
     style="fill:url(#New_Gradient_Swatch_61-5)" />
  <path
     class="cls-21"
     d="m 33.985801,19.229007 c -0.013,-0.028 -0.024,-0.057 -0.038,-0.086 l -0.014,-0.03 c 0.018,0.038 0.034,0.076 0.052,0.116 z"
     id="path3936"
     inkscape:connector-curvature="0"
     style="fill:url(#New_Gradient_Swatch_8-8)" />
  <path
     class="cls-22"
     d="m 33.985801,19.229007 c -0.013,-0.028 -0.024,-0.057 -0.038,-0.086 l -0.014,-0.03 c 0.018,0.038 0.034,0.076 0.052,0.116 z"
     id="path3938"
     inkscape:connector-curvature="0"
     style="fill:url(#New_Gradient_Swatch_61-6)" />
  <path
     class="cls-23"
     d="m 34.353801,20.066007 v -0.007 -0.005 z"
     id="path3940"
     inkscape:connector-curvature="0"
     style="fill:url(#New_Gradient_Swatch_8-9)" />
  <path
     class="cls-24"
     d="m 34.353801,20.066007 v -0.007 -0.005 z"
     id="path3942"
     inkscape:connector-curvature="0"
     style="fill:url(#New_Gradient_Swatch_61-7)" />
  <path
     class="cls-25"
     d="m 34.204801,19.723007 c -0.061,-0.139 -0.121,-0.277 -0.184,-0.417 l -0.035,-0.077 c 0.075,0.165 0.146,0.329 0.219,0.494 z"
     id="path3944"
     inkscape:connector-curvature="0"
     style="fill:url(#New_Gradient_Swatch_16-8)" />
  <path
     class="cls-26"
     d="m 34.204801,19.723007 c -0.061,-0.139 -0.121,-0.277 -0.184,-0.417 l -0.035,-0.077 c 0.075,0.165 0.146,0.329 0.219,0.494 z"
     id="path3946"
     inkscape:connector-curvature="0"
     style="fill:url(#New_Gradient_Swatch_61-8)" />
  <path
     class="cls-27"
     d="m 34.390801,20.154007 v -0.006 l -0.036,-0.083 c 0.012,0.03 0.023,0.059 0.036,0.089 z"
     id="path3948"
     inkscape:connector-curvature="0"
     style="fill:url(#New_Gradient_Swatch_16-9)" />
  <path
     class="cls-28"
     d="m 34.390801,20.154007 v -0.006 l -0.036,-0.083 c 0.012,0.03 0.023,0.059 0.036,0.089 z"
     id="path3950"
     inkscape:connector-curvature="0"
     style="fill:url(#New_Gradient_Swatch_61-9)" />
  <path
     class="cls-29"
     d="m 34.390801,20.154007 c -0.013,-0.03 -0.024,-0.059 -0.037,-0.088 v -0.012 c -0.047,-0.109 -0.1,-0.22 -0.145,-0.331 -0.072,-0.165 -0.144,-0.329 -0.219,-0.495 -0.018,-0.039 -0.034,-0.077 -0.052,-0.116 q -0.212,-0.46 -0.44,-0.927 a 44.752,44.752 0 0 1 -1.676,4.492 c 0.755,2.3 0.917,4.124 0.4,4.925 l -0.02,0.03 a 1.279,1.279 0 0 1 -0.128,0.164 c -0.02,0.022 -0.041,0.045 -0.063,0.067 -0.022,0.022 -0.058,0.055 -0.089,0.083 a 2.342,2.342 0 0 1 -0.241,0.188 l -0.013,0.011 c 1.285,-0.679 3.756,-1.88 2.723,-7.991 z"
     id="path3952"
     inkscape:connector-curvature="0"
     style="fill:url(#New_Gradient_Swatch_8-10)" />
  <path
     class="cls-30"
     d="m 34.390801,20.154007 c -0.013,-0.03 -0.024,-0.059 -0.037,-0.088 v -0.012 c -0.047,-0.109 -0.1,-0.22 -0.145,-0.331 -0.072,-0.165 -0.144,-0.329 -0.219,-0.495 -0.018,-0.039 -0.034,-0.077 -0.052,-0.116 q -0.212,-0.46 -0.44,-0.927 a 44.752,44.752 0 0 1 -1.676,4.492 c 0.755,2.3 0.917,4.124 0.4,4.925 l -0.02,0.03 a 1.279,1.279 0 0 1 -0.128,0.164 c -0.02,0.022 -0.041,0.045 -0.063,0.067 -0.022,0.022 -0.058,0.055 -0.089,0.083 a 2.342,2.342 0 0 1 -0.241,0.188 l -0.013,0.011 c 1.285,-0.679 3.756,-1.88 2.723,-7.991 z"
     id="path3954"
     inkscape:connector-curvature="0"
     style="fill:url(#New_Gradient_Swatch_16-10)" />
  <path
     class="cls-1"
     d="m 33.988801,19.235007 v -0.007 c -0.018,-0.039 -0.034,-0.077 -0.052,-0.116 l -0.009,-0.019 c -0.138,-0.3 -0.281,-0.6 -0.431,-0.908 a 44.752,44.752 0 0 1 -1.676,4.492 c 0.755,2.3 0.917,4.124 0.4,4.925 l -0.02,0.03 a 1.279,1.279 0 0 1 -0.128,0.164 c -0.019,0.022 -0.039,0.042 -0.061,0.064 -0.022,0.022 -0.051,0.048 -0.077,0.073 l -0.014,0.013 a 2.536,2.536 0 0 1 -0.237,0.185 h -0.006 c -0.059,0.04 -0.124,0.08 -0.191,0.12 l -0.051,0.029 c -0.065,0.037 -0.133,0.072 -0.2,0.107 l -0.07,0.034 c -0.071,0.034 -0.144,0.067 -0.221,0.1 l -0.078,0.031 c -0.08,0.032 -0.161,0.064 -0.246,0.1 h -0.009 c -0.166,0.06 -0.346,0.115 -0.533,0.168 -0.058,0.016 -0.115,0.034 -0.175,0.049 l -0.2,0.049 -0.24,0.057 -0.182,0.038 c -0.1,0.02 -0.2,0.04 -0.3,0.059 l -0.156,0.028 q -0.193,0.033 -0.394,0.062 l -0.088,0.014 a 22.107,22.107 0 0 1 -2.348,0.2 v 0 q -0.32,0.011 -0.653,0.014 0.626,-0.743 1.237,-1.528 a 36.656,36.656 0 0 0 6.777,-17.9510003 c 0.53,0.1580003 1.047,0.3300003 1.537,0.5260003 0.029,-1.9360003 -0.315,-3.4590003 -1.088,-4.3100003 -1.162,-1.323 -3.982,-1.8 -7.541,-1.533 l -0.106,0.009 c -0.206,0.016 -0.414,0.035 -0.626,0.056 l -0.178,0.018 c -0.207,0.022 -0.415,0.046 -0.626,0.073 l -0.143,0.017 q -0.376,0.05 -0.76,0.108 l -0.221,0.037 q -0.273,0.044 -0.549,0.092 l -0.32,0.058 -0.465,0.089 -0.21,0.04 v 0 a 44.157,44.157 0 0 0 -5.954,1.659 c -0.217,0.061 -0.435,0.124 -0.657,0.2 -6.3000002,2.06 -11.9060002,5.4460003 -14.2640002,8.4680003 l -0.018,0.023 a 6.117,6.117 0 0 0 -0.98399997,1.728 l -0.006,0.018 a 3.565,3.565 0 0 0 -0.108,0.392 v 0.02 a 2.862,2.862 0 0 0 -0.065,0.451 c -0.106,1.771 1.56899997,4.134 4.29999997,6.492 a 7.332,7.332 0 0 1 -0.088,-1.113 42.743,42.743 0 0 0 8.7160002,4.924 29.547,29.547 0 0 0 3.549,1.193 v 0.005 c 0.156,0.042 0.313,0.081 0.469,0.121 0.057,0.014 0.115,0.029 0.172,0.044 -0.214,-0.053 -0.428,-0.108 -0.641,-0.165 a 9.02,9.02 0 0 0 0.887,2.12 c 0.632,0.166 1.264,0.309 1.9,0.434 -2.017,1.334 -3.723,1.964 -4.624,1.669 l -0.04,-0.016 c -0.786,-0.257 -1.658,-1.444 -2.435,-3.251 -1.192,-0.336 -2.3300002,-0.717 -3.4000002,-1.128 l -0.547,-0.169 c 1.243,4.454 3.1000002,7.761 5.0860002,8.444 1.9,0.566 5.4,-1.553 9.022,-5.1 6.387,0.629 12.046,-0.721 13.3,-2.8 a 3.588,3.588 0 0 0 0.394,-1.014 c -0.08,0.067 -0.169,0.132 -0.263,0.2 0.094,-0.064 0.183,-0.13 0.263,-0.2 v 0 l 0.03,-0.023 c 0.531,-2.139 -0.294,-5.688 -2.066,-9.582 z m 0.916,10.273 c 0.114,-0.052 0.224,-0.1 0.328,-0.158 a 8.168,8.168 0 0 1 -0.858,0.375 c 0.113,-0.042 0.222,-0.086 0.327,-0.131 0.073,-0.029 0.141,-0.057 0.203,-0.086 z m -1.268,0.466 0.166,-0.053 q 0.189,-0.059 0.367,-0.122 -0.506,0.179 -1.1,0.333 0.3,-0.076 0.571,-0.158 z m -0.73,0.2 0.098,-0.025 c -0.205,0.053 -0.42,0.1 -0.639,0.151 l 0.046,-0.01 c 0.169,-0.038 0.337,-0.077 0.499,-0.117 z m -0.673,0.155 c -0.485,0.1 -1,0.191 -1.545,0.267 l 0.1,-0.013 c 0.51,-0.075 0.994,-0.16 1.449,-0.254 z m -2.335,0.368 q 0.39,-0.044 0.763,-0.1 -0.381,0.054 -0.779,0.1 z m -0.028,0 c -0.569,0.063 -1.164,0.112 -1.778,0.145 0.619,-0.031 1.212,-0.08 1.783,-0.142 z m -21.1740002,-6.768 a 17.888,17.888 0 0 1 -3.836,-3.663 c -0.056,-0.079 -0.11,-0.157 -0.156,-0.237 -0.014,-0.02 -0.026,-0.04 -0.039,-0.061 a 4.973,4.973 0 0 1 -0.344,-0.623 c -0.02,-0.044 -0.04,-0.087 -0.057,-0.129 -0.017,-0.042 -0.033,-0.085 -0.048,-0.128 -0.015,-0.043 -0.032,-0.094 -0.046,-0.14 -0.014,-0.046 -0.021,-0.074 -0.03,-0.11 -0.013,-0.052 -0.022,-0.1 -0.03,-0.152 0,-0.029 -0.01,-0.058 -0.013,-0.086 a 1.39,1.39 0 0 1 -0.008,-0.222 v -0.033 a 1.388,1.388 0 0 1 0.026,-0.194 c 0,-0.021 0.009,-0.042 0.014,-0.063 0.011,-0.049 0.026,-0.1 0.042,-0.148 0.007,-0.023 0.014,-0.045 0.023,-0.068 0.025,-0.068 0.053,-0.138 0.086,-0.208 0.009,-0.019 0.02,-0.039 0.03,-0.059 0.027,-0.053 0.055,-0.108 0.087,-0.163 0.019,-0.033 0.039,-0.066 0.059,-0.1 0.02,-0.034 0.055,-0.088 0.085,-0.132 0.03,-0.044 0.047,-0.072 0.073,-0.109 0.026,-0.037 0.075,-0.1 0.114,-0.154 0.039,-0.054 0.1,-0.13 0.155,-0.2 l 0.081,-0.1 c 0.044,-0.051 0.09,-0.1 0.137,-0.156 l 0.07,-0.076 c 0.176,-0.186 0.374,-0.386 0.591,-0.586 l 0.024,-0.022 c 0.078,-0.072 0.158,-0.144 0.241,-0.217 v 0 q 0.256,-0.225 0.543,-0.454 v 0 a 21.627,21.627 0 0 1 1.834,-1.307 75.6,75.6 0 0 1 16.2650002,-5.7370003 c 0.438,-0.05 0.859,-0.084 1.265,-0.107 v 0 a 15.172,15.172 0 0 1 2.412,0.032 h 0.009 c 0.114,0.011 0.224,0.025 0.332,0.04 h 0.01 a 6.679,6.679 0 0 1 0.881,0.18 h 0.01 c 0.06,0.018 0.117,0.037 0.174,0.056 0.036,0.011 0.072,0.023 0.106,0.035 l 0.136,0.057 c 0.04,0.016 0.079,0.033 0.117,0.05 0.038,0.017 0.075,0.035 0.111,0.054 0.036,0.019 0.078,0.041 0.115,0.062 0.037,0.021 0.06,0.035 0.089,0.053 0.029,0.018 0.077,0.053 0.113,0.08 0.021,0.016 0.043,0.031 0.063,0.047 a 1.394,1.394 0 0 1 0.146,0.139 l 0.026,0.027 a 1.34,1.34 0 0 1 0.154,0.211 v 0 a 2.074,2.074 0 0 1 0.129,0.257 c 0.518,1.2260003 0.384,3.7610003 -0.416,6.8270003 -3.021,8 -4.795,10 -7.782,12.933 -7.919,-1.015 -9.591,-2.496 -14.1730002,-5.196 z m 12.6740002,6.67 c -1.031,-0.129 -2.073,-0.3 -3.113,-0.526 q 0.452,0.1 0.905,0.181 l 0.142,0.027 q 1.034,0.189 2.061,0.317 v 0 z m -4.2,-0.776 q 0.487,0.121 0.976,0.227 l 0.076,0.015 q -0.532,-0.113 -1.057,-0.243 z m 6.908,1.018 v 0 q 1.035,0.056 2.03,0.056 h 0.027 q 0.977,0 1.9,-0.05 a 37.182,37.182 0 0 1 -3.962,-0.006 z m 11.247,-1.536 0.088,-0.048 c 0.071,-0.04 0.138,-0.079 0.2,-0.12 l 0.04,-0.026 q -0.157,0.099 -0.333,0.193 z"
     id="path3956"
     inkscape:connector-curvature="0"
     style="fill:#00c9db" />
  <path
     class="cls-1"
     d="m 33.493801,18.185007 a 44.752,44.752 0 0 1 -1.676,4.492 c 0.755,2.3 0.917,4.124 0.4,4.925 l -0.02,0.03 c -0.674,1.048 -3.4,1.746 -7.029,1.761 -7.687,-0.793 -10.348,-1.864 -13.464,-3.672 -0.728,-0.423 -1.485,-0.885 -2.3340002,-1.393 l -0.674,-0.399 a 20.2,20.2 0 0 1 -3.351,-3.039 v 0 a 4.213,4.213 0 0 1 -1.259,-2.507 v -0.038 c 0.043,-0.832 0.955,-1.987 2.485,-3.211 a 40.5,40.5 0 0 1 0.264,-4.205 c -4.008,2.389 -6.73099997,5.094 -6.83099997,7.221 -0.158,2.627 3.59999997,6.552 8.89999997,9.836 l 0.014,0.009 q 0.406,0.251 0.824,0.5 l 0.086,0.051 q 0.4300002,0.252 0.8700002,0.5 l 0.036,0.019 q 0.4,0.222 0.807,0.436 l 0.19,0.1 c 0.287,0.15 0.575,0.3 0.867,0.443 l 0.113,0.051 v 0 c 9.293,4.356 21.093,2.661 22.923,-0.239 1.323,-2.019 0.327,-6.652 -2.141,-11.671 z"
     id="path3958"
     inkscape:connector-curvature="0"
     style="fill:#00c9db" />
  <path
     class="cls-1"
     d="m 14.642801,33.869007 -0.038,-0.011 c -1.18,-0.386 -2.552,-2.859 -3.507,-6.387 -1.5900002,-9.947 -0.558,-11.824 0.976,-17.45 1.308,-3.3740003 2.916,-5.6650003 4.121,-5.9250003 l 0.036,-0.006 c 0.808,-0.174 2.152,0.415 3.72,1.587 a 40.056,40.056 0 0 1 4.1,-0.833 c -3.326,-3.284 -6.623,-5.23799998 -8.686,-4.77699998 -3.121,0.642 -6.5850002,7.44799998 -8.1360002,15.33500028 -1.834,10.208 2.661,21.327 6.1370002,22.375 2.3,0.692 6.46,-1.4 10.633,-5.1 a 43.64,43.64 0 0 1 -4.74,-0.469 c -2.013,1.328 -3.716,1.956 -4.616,1.661 z"
     id="path3960"
     inkscape:connector-curvature="0"
     style="fill:#00c9db" />
  <path
     class="cls-1"
     d="m 15.424801,0.05800672 c -2.691,0.653 -5.4780002,7.38599998 -6.5850002,15.25800028 -1.235,9.794 2.7510002,20.613 5.6300002,22.607 2.385,-0.045 5.958,-2.081 9.528,-5.249 a 43.64,43.64 0 0 1 -4.74,-0.469 c -2.012,1.332 -3.715,1.96 -4.615,1.665 l -0.038,-0.012 c -1.18,-0.386 -2.552,-2.859 -3.507,-6.387 -1.5900002,-9.947 -0.558,-11.824 0.976,-17.45 1.308,-3.3740003 2.916,-5.6650003 4.121,-5.9250003 l 0.036,-0.006 c 0.808,-0.174 2.152,0.415 3.72,1.587 1.2,-0.307 2.374,-0.552 3.508,-0.737 l 0.557,-0.129 c -3.283,-3.233 -6.531,-5.16399998 -8.591,-4.75299998 z"
     id="path3962"
     inkscape:connector-curvature="0"
     style="fill:#00c9db" />
  <path
     class="cls-1"
     d="m 22.352801,34.052007 c 0.545,-0.432 1.1,-0.891 1.646,-1.379 a 43.64,43.64 0 0 1 -4.74,-0.469 c -2.012,1.332 -3.715,1.96 -4.615,1.665 l -0.039,-0.011 a 1.884,1.884 0 0 1 -0.63,-0.387 c 0.987,1.079 2.78,3.176 8.378,0.581 z"
     id="path3964"
     inkscape:connector-curvature="0"
     style="fill:#00c9db" />
  <path
     class="cls-1"
     d="m 24.019801,4.8110067 -0.015,-0.016 a 6.918,6.918 0 0 0 -6.043,-1.315 8.226,8.226 0 0 0 -1.906,0.661 c 0.048,-0.016 0.1,-0.034 0.143,-0.045 l 0.036,-0.006 c 0.808,-0.174 2.152,0.415 3.72,1.587 1.2,-0.307 2.374,-0.552 3.508,-0.737 z"
     id="path3966"
     inkscape:connector-curvature="0"
     style="fill:#00c9db" />
  <text
     xml:space="preserve"
     style="font-style:normal;font-weight:normal;font-size:40px;line-height:1.25;font-family:sans-serif;letter-spacing:0px;word-spacing:0px;fill:#f1f1f8;fill-opacity:1;stroke:none"
     x="38.191101"
     y="33.589607"
     id="text3983"><tspan
       sodipodi:role="line"
       id="tspan3981"
       x="38.191101"
       y="33.589607"
       style="fill:#f1f1f8;fill-opacity:1">Zombie2Friend</tspan></text>
</svg>
